<svg width="35" height="30" viewBox="-8 0 148 183" xmlns="http://www.w3.org/2000/svg">
  <g clipPath="url(#clip0_2312_47)">
    <path d="M97.4396 105.1H94.5496C91.2635 105.1 88.5996 107.764 88.5996 111.05V155.92C88.5996 159.206 91.2635 161.87 94.5496 161.87H97.4396C100.726 161.87 103.39 159.206 103.39 155.92V111.05C103.39 107.764 100.726 105.1 97.4396 105.1Z" fill="currentColor"/>
    <path d="M53.1193 105.1H50.2293C46.9432 105.1 44.2793 107.764 44.2793 111.05V155.92C44.2793 159.206 46.9432 161.87 50.2293 161.87H53.1193C56.4054 161.87 59.0693 159.206 59.0693 155.92V111.05C59.0693 107.764 56.4054 105.1 53.1193 105.1Z" fill="currentColor"/>
    <path d="M75.2794 21.05H72.3895C69.1034 21.05 66.4395 23.714 66.4395 27V155.89C66.4395 159.176 69.1034 161.84 72.3895 161.84H75.2794C78.5655 161.84 81.2295 159.176 81.2295 155.89V27C81.2295 23.714 78.5655 21.05 75.2794 21.05Z" fill="currentColor"/>
    <path d="M53.1 84.0699H50.24C46.9539 84.0699 44.29 86.7338 44.29 90.0199V92.91C44.29 96.196 46.9539 98.8599 50.24 98.8599H53.1C56.3861 98.8599 59.05 96.196 59.05 92.91V90.0199C59.05 86.7338 56.3861 84.0699 53.1 84.0699Z" fill="currentColor"/>
    <path d="M75.27 0H72.41C69.1239 0 66.46 2.66391 66.46 5.95V8.84C66.46 12.1261 69.1239 14.79 72.41 14.79H75.27C78.5561 14.79 81.22 12.1261 81.22 8.84V5.95C81.22 2.66391 78.5561 0 75.27 0Z" fill="currentColor"/>
    <path d="M75.27 168.1H72.41C69.1239 168.1 66.46 170.764 66.46 174.05V176.94C66.46 180.226 69.1239 182.89 72.41 182.89H75.27C78.5561 182.89 81.22 180.226 81.22 176.94V174.05C81.22 170.764 78.5561 168.1 75.27 168.1Z" fill="currentColor"/>
    <path d="M8.81 84.0699H5.95C2.66391 84.0699 0 86.7338 0 90.0199V92.91C0 96.196 2.66391 98.8599 5.95 98.8599H8.81C12.0961 98.8599 14.76 96.196 14.76 92.91V90.0199C14.76 86.7338 12.0961 84.0699 8.81 84.0699Z" fill="currentColor"/>
    <path d="M97.4194 84.0699H94.5594C91.2733 84.0699 88.6094 86.7338 88.6094 90.0199V92.91C88.6094 96.196 91.2733 98.8599 94.5594 98.8599H97.4194C100.705 98.8599 103.369 96.196 103.369 92.91V90.0199C103.369 86.7338 100.705 84.0699 97.4194 84.0699Z" fill="currentColor"/>
    <path d="M141.73 84.0699H138.87C135.584 84.0699 132.92 86.7338 132.92 90.0199V92.91C132.92 96.196 135.584 98.8599 138.87 98.8599H141.73C145.016 98.8599 147.68 96.196 147.68 92.91V90.0199C147.68 86.7338 145.016 84.0699 141.73 84.0699Z" fill="currentColor"/>
    <path d="M97.4396 21.05H94.5496C91.2635 21.05 88.5996 23.714 88.5996 27V71.8702C88.5996 75.1562 91.2635 77.82 94.5496 77.82H97.4396C100.726 77.82 103.39 75.1562 103.39 71.8702V27C103.39 23.714 100.726 21.05 97.4396 21.05Z" fill="currentColor"/>
    <path d="M119.59 63.0699H116.7C113.414 63.0699 110.75 65.7338 110.75 69.0199V113.89C110.75 117.176 113.414 119.84 116.7 119.84H119.59C122.876 119.84 125.54 117.176 125.54 113.89V69.0199C125.54 65.7338 122.876 63.0699 119.59 63.0699Z" fill="currentColor"/>
    <path d="M30.9806 63.0699H28.0906C24.8045 63.0699 22.1406 65.7338 22.1406 69.0199V113.89C22.1406 117.176 24.8045 119.84 28.0906 119.84H30.9806C34.2667 119.84 36.9306 117.176 36.9306 113.89V69.0199C36.9306 65.7338 34.2667 63.0699 30.9806 63.0699Z" fill="currentColor"/>
    <path d="M53.1193 21.05H50.2293C46.9432 21.05 44.2793 23.714 44.2793 27V71.8702C44.2793 75.1562 46.9432 77.82 50.2293 77.82H53.1193C56.4054 77.82 59.0693 75.1562 59.0693 71.8702V27C59.0693 23.714 56.4054 21.05 53.1193 21.05Z" fill="currentColor"/>
  </g>
  <defs>
    <clipPath id="clip0_2312_47">
      <rect width="148" height="183" fill="white"/>
    </clipPath>
  </defs>
</svg>